HIERARCHY
ROOT pelvis
{
  OFFSET 0 100 0
  CHANNELS 6 Xposition Yposition Zposition Zrotation Xrotation Yrotation
  JOINT pelvis_right_femur
  {
    OFFSET -10.78128 -3.44521 -0.5502486
    CHANNELS 3 Zrotation Xrotation Yrotation
    JOINT right_femur_tibia
    {
      OFFSET -0.8047443 -44.0398 -0.1307829
      CHANNELS 3 Zrotation Xrotation Yrotation
      JOINT right_tibia_foot
      {
        OFFSET 3.006224 -47.83518 -5
        CHANNELS 3 Zrotation Xrotation Yrotation
        End Site
        {
          OFFSET 0 -5 15
        }
      }
    }
  }
  JOINT pelvis_left_femur
  {
    OFFSET 10.78128 -3.44521 -0.5502486
    CHANNELS 3 Zrotation Xrotation Yrotation
    JOINT left_femur_tibia
    {
      OFFSET 0.8047443 -44.0398 -0.1307829
      CHANNELS 3 Zrotation Xrotation Yrotation
      JOINT left_tibia_foot
      {
        OFFSET -4.370144 -48.10324 -4.275266
        CHANNELS 3 Zrotation Xrotation Yrotation
        End Site
        {
          OFFSET 0 -5 15
        }
      }
    }
  }
  JOINT pelvis_spine1
  {
    OFFSET 0 6.468898 -3.129235
    CHANNELS 3 Zrotation Xrotation Yrotation
    JOINT spine1
    {
      OFFSET 0 23.15396 4.99043
      CHANNELS 3 Zrotation Xrotation Yrotation
      JOINT spine2
      {
        OFFSET 0 20.79997 -5.064912
        CHANNELS 3 Zrotation Xrotation Yrotation
        JOINT neck
        {
          OFFSET 0 14.38658 9.616178
          CHANNELS 3 Zrotation Xrotation Yrotation
          End Site
          {
            OFFSET 0 20 0
          }
        }
      }
      JOINT right_manubrium
      {
        OFFSET -5.722621 16.35077 3.967754
        CHANNELS 3 Zrotation Xrotation Yrotation
        JOINT right_clavicle
        {
          OFFSET -13.16364 1.694482 -4.693211
          CHANNELS 3 Zrotation Xrotation Yrotation
          JOINT right_humerus
          {
            OFFSET -28.5034 -0.3100689 -2.792744
            CHANNELS 3 Zrotation Xrotation Yrotation
            JOINT right_radius
            {
              OFFSET -25.15693 0.02248979 -1.271978
              CHANNELS 3 Zrotation Xrotation Yrotation
              End Site
              {
                OFFSET -15 0 0
              }
            }
          }
        }
      }
      JOINT left_manubrium
      {
        OFFSET 5.722621 16.35077 3.967754
        CHANNELS 3 Zrotation Xrotation Yrotation
        JOINT left_clavicle
        {
          OFFSET 13.16364 1.694482 -4.693211
          CHANNELS 3 Zrotation Xrotation Yrotation
          JOINT left_humerus
          {
            OFFSET 29.39168 -1.063119 -2.237045
            CHANNELS 3 Zrotation Xrotation Yrotation
            JOINT left_radius
            {
              OFFSET 24.59957 -0.9528479 0.9047498
              CHANNELS 3 Zrotation Xrotation Yrotation
              End Site
              {
                OFFSET 15 -0 -0
              }
            }
          }
        }
      }
    }
  }
}
MOTION
Frames: 9
Frame Time: 0.0416666666667
0 103.5113 0 1.598255 -0.7602757 0.0998165 2.462251 -14.96282 10.28534 -0 39.93102 -0 -5.198006 -18.93241 -3.869366 -7.705146 10.63751 -24.22605 -0 4.623879 -0 11.73306 -15.05587 28.16119 -4.555769 -4.238689 4.555553 2.892725 9.312056 -7.567197 1.478912 22.56442 6.345887 2.19922 -24.52539 9.810361 6.706175 -19.83008 11.55998 85.14831 36.43656 -18.40355 -0 0 16.01662 -6.50419 8.00174 5.308255 4.474926 -18.01415 -1.466179 -93.34152 26.73561 21.68707 0 0 -14.69347 8.013451 16.10975 5.012905
0.2998187 103.5071 1.383495 1.225891 -0.6016643 0.1885157 2.913874 -16.48351 9.921339 -0 39.37985 -0 -5.460083 -17.58145 -3.672813 -7.417692 10.78261 -23.85415 -0 4.526108 -0 11.13131 -15.66547 27.73246 -4.224425 -3.962001 4.470645 2.828696 9.414461 -7.588784 1.50296 22.40151 6.520673 2.396196 -24.76399 9.895388 6.521752 -19.81895 11.56181 85.3782 36.14716 -18.54082 -0 0 15.86129 -6.808289 8.137674 5.27056 4.796695 -18.44796 -1.507979 -93.25777 26.56195 21.58597 0 0 -15.19497 8.389559 16.24043 4.711502
0.5736773 103.4049 3.082146 0.06038707 0.4751323 0.3101559 4.708751 -21.62631 9.64263 -0 36.20641 -0 -5.69797 -15.70235 -3.520865 -6.623268 11.67661 -23.16971 -0 4.217483 -0 8.976271 -18.06034 26.5338 -3.247549 -3.254392 4.355989 2.835946 9.215316 -7.798817 1.664765 21.82334 6.869315 2.776299 -25.7427 10.26664 5.981078 -19.68226 11.32829 85.97199 35.44136 -19.39381 -0 0 15.66384 -6.290343 8.119331 4.550098 5.739623 -19.40156 -1.176145 -93.58576 27.6636 21.75682 0 0 -17.28814 8.247819 16.66625 5.472928
0.8504283 103.1291 5.284465 -0.7021887 0.7601309 0.5104994 5.505322 -25.56627 8.260734 -0 33.26253 -0 -6.479079 -11.48882 -2.790057 -5.96377 12.34707 -21.65035 -0 4.65294 -0 7.182537 -19.50698 24.72203 -2.4875 -2.540127 4.045773 2.66874 9.556386 -7.884792 1.676992 21.41277 7.255267 3.276089 -26.05424 10.28379 5.378047 -19.48079 11.33478 86.80295 34.37569 -19.96128 -0 0 14.81142 -7.654693 8.540612 4.770816 6.526398 -20.70675 -1.498254 -92.65207 26.67751 20.62214 0 0 -19.07937 9.339582 16.6212 4.347735
1.132573 102.6173 8.129528 -1.159117 0.6801124 0.7558158 5.650796 -28.92431 6.044736 -0 29.08192 -0 -7.36848 -6.646094 -1.794218 -5.469148 13.14286 -19.53496 -0 5.504151 -0 5.550074 -20.60302 22.46652 -1.897366 -1.855529 3.665769 2.487036 10.05705 -7.953085 1.595028 21.10098 7.572601 3.719637 -26.0152 10.05585 4.562664 -19.2167 11.41533 87.87122 32.82062 -20.56113 -0 0 13.52669 -9.861873 8.986765 5.433781 7.223029 -22.2044 -2.154053 -90.97208 24.685 18.55698 0 0 -21.13997 10.86856 16.1355 2.337001
1.412365 101.8109 11.69618 -1.187379 0.1433297 1.02041 5.0253 -31.00506 3.029325 -0 23.76678 -0 -8.221728 -1.994446 -0.7127226 -5.249128 14.08539 -17.03334 -0 6.740884 -0 4.191253 -21.28647 20.03166 -1.564885 -1.320106 3.274805 2.307691 10.60327 -7.981767 1.418342 21.00011 7.750005 4.005971 -25.58599 9.57354 3.483647 -18.92635 11.5327 89.17275 30.70926 -21.20295 -0 0 11.86214 -12.64533 9.261594 6.416104 7.713832 -23.72992 -3.11944 -88.8605 22.04133 15.81928 0 0 -23.44369 12.36864 15.29839 -0.08958957
1.675349 100.7027 16.0432 -0.8081918 -0.845816 1.298798 3.836943 -31.54564 -0.5541978 -0 17.586 -0 -8.988471 2.036483 0.2821402 -5.305618 15.18798 -14.31472 -0 8.503385 -0 3.044053 -21.59449 17.60942 -1.45338 -1.004294 2.916031 2.120554 11.10661 -7.957754 1.176739 21.1698 7.760687 4.104698 -24.81256 8.885389 2.090009 -18.63597 11.63419 90.75108 28.02401 -21.93132 -0 0 9.833569 -15.7113 9.246779 7.507638 7.961553 -25.21041 -4.332763 -86.6415 19.15101 12.72042 0 0 -26.02762 13.49566 14.33678 -2.480427
1.903179 99.37719 21.18116 -0.167766 -2.173893 1.599381 2.591049 -30.51779 -4.055719 -0 11.43281 -0 -9.661884 5.05848 0.9736561 -5.55128 16.34417 -11.67811 -0 11.01292 -0 2.083848 -21.49326 15.51858 -1.444949 -0.9797133 2.636765 1.910755 11.49484 -7.878556 0.9434577 21.62247 7.589763 4.004108 -23.84157 8.125674 0.4204868 -18.39257 11.65659 92.58167 24.95205 -22.7347 -0 0 7.565766 -18.60221 8.925975 8.421468 7.943553 -26.52462 -5.631995 -84.66841 16.55438 9.737014 0 0 -28.71355 14.05237 13.59924 -4.380778
2.072937 98.02502 27.04143 0.4473166 -3.577482 1.9101 1.906785 -28.33882 -6.603388 -0 6.584612 -0 -10.2916 6.794645 1.157022 -5.789099 17.33485 -9.508466 -0 14.55518 -0 1.30655 -20.89316 14.10031 -1.342288 -1.275377 2.472685 1.677875 11.72701 -7.7661 0.8295967 22.27689 7.239811 3.704549 -22.92695 7.504763 -1.37323 -18.24117 11.53832 94.5402 21.90226 -23.54722 -0 0 5.322667 -20.76464 8.43101 8.887904 7.670642 -27.509 -6.752816 -83.23626 14.83343 7.445714 0 0 -31.10393 14.04729 13.42931 -5.414189
